<svg width="45" height="46" viewBox="0 0 45 46" fill="none" xmlns="http://www.w3.org/2000/svg">
<circle cx="22.5" cy="23.3462" r="22.5" fill="#EA001E"/>
<mask id="mask0_397_16176" style="mask-type:alpha" maskUnits="userSpaceOnUse" x="0" y="0" width="45" height="46">
<circle cx="22.5" cy="23.3462" r="22.5" fill="#535353"/>
</mask>
<g mask="url(#mask0_397_16176)">
<path d="M43.6716 57.674C43.6262 57.5475 43.5657 57.4351 43.5052 57.3086L39.8304 46.4879C39.8153 46.4035 39.8002 46.3333 39.7699 46.249C39.7094 46.0663 39.6187 45.8836 39.528 45.7149L36.0951 35.5968C36.0649 35.4703 36.0498 35.3439 36.0044 35.2174C35.3541 33.3202 33.1765 32.2663 31.1349 32.8565C29.0934 33.4467 27.9592 35.4844 28.5943 37.3815C28.6397 37.508 28.7002 37.6204 28.7607 37.7329L32.3145 48.2164C32.3296 48.2866 32.3296 48.3428 32.3599 48.4131C32.4203 48.5817 32.496 48.7504 32.5867 48.905L36.1707 59.4728C36.201 59.5993 36.2161 59.7257 36.2464 59.8382C36.8966 61.7353 39.0743 62.7893 41.1159 62.1991C43.1574 61.6088 44.3067 59.5712 43.6716 57.674Z" fill="#FDF7F7"/>
<path d="M26.0123 21.1531C29.1565 21.1531 31.7054 18.3913 31.7054 14.9845C31.7054 11.5776 29.1565 8.8158 26.0123 8.8158C22.8682 8.8158 20.3193 11.5776 20.3193 14.9845C20.3193 18.3913 22.8682 21.1531 26.0123 21.1531Z" fill="#061E23"/>
<path d="M21.5537 22.7747C26.0442 22.7747 29.6846 19.4156 29.6846 15.2719C29.6846 11.1282 26.0442 7.76904 21.5537 7.76904C17.0632 7.76904 13.4229 11.1282 13.4229 15.2719C13.4229 19.4156 17.0632 22.7747 21.5537 22.7747Z" fill="#061E23"/>
<path d="M20.5215 24.9266V33.6632H24.9239V24.7114H20.5215V24.9266Z" fill="#FFE7B9"/>
<path d="M22.6582 10.9105H22.5865C18.8724 10.9105 15.861 13.9231 15.861 17.6387V20.3787C15.861 20.4074 15.8467 20.4361 15.8467 20.4648C15.8467 20.4935 15.861 20.5222 15.861 20.5509V21.8707C15.861 25.5862 18.8724 28.5988 22.5865 28.5988H22.6582C26.3723 28.5988 29.3837 25.5862 29.3837 21.8707V17.6387C29.3837 13.9231 26.3723 10.9105 22.6582 10.9105Z" fill="#FFE7B9"/>
<path d="M26.1572 13.2929C26.1572 13.2929 24.8809 16.162 23.4182 16.2912C23.4182 16.2912 24.6371 15.6169 25.01 14.0389C25.01 14.0389 23.1171 15.9325 18.6573 16.119C14.1975 16.3055 16.578 12.0305 16.578 12.0305C16.578 12.0305 23.0454 4.9867 26.1572 13.2929Z" fill="#061E23"/>
<path d="M26.3014 14.3828C26.3014 14.3828 26.6168 15.2005 26.3014 16.2621C26.3014 16.2621 26.8893 15.4588 26.8319 14.6841C26.8319 14.6841 27.635 17.3381 29.6426 17.9693C29.6426 17.9693 29.7143 14.8275 27.4629 12.7187C25.2115 10.6099 23.9209 11.1407 23.9209 11.1407L25.9285 14.4546L26.3014 14.3828Z" fill="#061E23"/>
<path d="M28.9825 19.5752C28.9825 19.5752 30.1584 17.9828 31.4346 18.8292C33.4279 20.149 30.8323 23.549 28.9395 22.7743" fill="#FFE7B9"/>
<path d="M16.2624 19.6188C16.2624 19.6188 15.0865 18.0264 13.8102 18.8728C11.8169 20.1926 14.4125 23.5925 16.3054 22.8179" fill="#FFE7B9"/>
<path d="M17.553 37.3824C18.2027 35.4854 17.0696 33.4479 15.015 32.8577C12.9603 32.2675 10.7848 33.3074 10.1503 35.2184C10.105 35.3449 10.0899 35.4713 10.0597 35.5978L6.63024 45.7151C6.5396 45.8837 6.44895 46.0523 6.38852 46.2491C6.3583 46.3334 6.35831 46.4036 6.3281 46.4879L2.65693 57.3078C2.5965 57.4343 2.53607 57.5467 2.49075 57.6732C1.84112 59.5702 2.9742 61.6077 5.02884 62.1979C7.08348 62.788 9.25897 61.7482 9.89349 59.8371C9.93882 59.7107 9.95391 59.5842 9.96901 59.4718L13.5495 48.9049C13.6251 48.7503 13.7157 48.5957 13.7761 48.413C13.7912 48.3428 13.8064 48.2866 13.8215 48.2163L17.3718 37.7337C17.4473 37.6213 17.5077 37.5088 17.553 37.3824Z" fill="#FDF7F7"/>
<path d="M33.0772 42.701C33.1203 42.5999 33.1634 42.4699 33.1634 42.3543V37.5716C33.1634 33.5837 29.9144 30.3182 25.9467 30.3182H19.0606C15.0929 30.3182 11.8439 33.5837 11.8439 37.5716V42.3543C11.8439 42.4699 11.8727 42.571 11.9014 42.6577C11.8439 42.9178 11.8008 43.1779 11.8008 43.4524V61.3692C11.8008 63.2187 13.3103 64.7358 15.1504 64.7358H29.8138C31.6539 64.7358 33.1634 63.2187 33.1634 61.3692V43.4524C33.1634 43.2068 33.1347 42.9467 33.0772 42.701Z" fill="#FDF7F7" stroke="black" stroke-width="0.00102857" stroke-miterlimit="10"/>
<path d="M16.4068 36.2598C16.4355 36.2311 16.4642 36.1881 16.4928 36.1594C16.6362 36.0303 16.8083 35.9729 16.9947 36.0303C17.1238 36.059 17.2098 36.1451 17.2815 36.2455C17.4106 36.432 17.4106 36.6472 17.2959 36.8193C17.1668 37.0058 16.9948 37.0919 16.7797 37.0632C16.6363 37.0488 16.5215 36.9628 16.4355 36.8623C16.3494 36.7619 16.3351 36.6328 16.3208 36.5037C16.3064 36.432 16.3064 36.3459 16.2777 36.2742C16.2204 36.102 16.12 35.9586 15.9623 35.8438C15.8332 35.7434 15.6898 35.7003 15.532 35.6716C15.4173 35.6573 15.3026 35.6716 15.1879 35.7003C15.0588 35.7434 14.9584 35.8008 14.8581 35.8725C14.686 36.0303 14.5856 36.2168 14.5569 36.4463C14.5426 36.5898 14.5569 36.7189 14.6143 36.848C14.6716 37.0058 14.772 37.1349 14.9011 37.2353C15.0301 37.3358 15.1879 37.3931 15.3456 37.4075C15.5321 37.4218 15.7041 37.3931 15.8619 37.3071C15.9336 37.264 16.0053 37.221 16.0626 37.1636C16.0053 37.0345 15.9479 36.9197 15.8906 36.8193C15.8189 36.9484 15.6324 37.0632 15.4603 37.0775C15.3026 37.0775 15.1735 37.0201 15.0588 36.9054C14.9441 36.7763 14.9011 36.6328 14.9298 36.475C14.9584 36.3172 15.0301 36.2024 15.1735 36.1164C15.36 36.0016 15.5464 36.0016 15.7328 36.102C15.9049 36.2024 15.9766 36.3746 15.9909 36.5611C16.0053 36.6758 16.0196 36.805 16.077 36.9054C16.1487 37.0632 16.2491 37.1779 16.3925 37.2784C16.5072 37.3501 16.6219 37.3931 16.751 37.4218C16.88 37.4362 16.9947 37.4362 17.1238 37.4075C17.2242 37.3788 17.3246 37.3214 17.425 37.2497C17.6257 37.0919 17.7404 36.891 17.7691 36.6328C17.7834 36.4607 17.7548 36.2885 17.6544 36.1307C17.5397 35.9299 17.3676 35.7864 17.1525 35.729C17.0091 35.686 16.8657 35.6716 16.7223 35.7003C16.5502 35.729 16.4068 35.8008 16.2777 35.9155C16.2634 35.9299 16.2634 35.9442 16.2777 35.9586C16.3208 36.0446 16.3781 36.1451 16.4068 36.2598Z" fill="#ED1C24"/>
<path d="M16.4067 36.26C16.378 36.1452 16.3207 36.0448 16.249 35.9444C16.2346 35.9301 16.2346 35.9157 16.249 35.9014C16.378 35.7866 16.5214 35.7149 16.6935 35.6862C16.8369 35.6575 16.9803 35.6718 17.1237 35.7149C17.3388 35.7866 17.5109 35.9301 17.6256 36.1165C17.7117 36.2744 17.7547 36.4465 17.7403 36.6186C17.7117 36.8769 17.5969 37.0777 17.3962 37.2355C17.3101 37.3072 17.2098 37.3503 17.095 37.3933C16.9803 37.422 16.8512 37.4364 16.7222 37.4077C16.5931 37.3933 16.4784 37.3359 16.3637 37.2642C16.2203 37.1781 16.1199 37.049 16.0482 36.8912C15.9908 36.7765 15.9765 36.6617 15.9622 36.5469C15.9335 36.3604 15.8761 36.1883 15.704 36.0879C15.5176 35.9731 15.3312 35.9731 15.1448 36.1022C15.0157 36.1883 14.9297 36.303 14.901 36.4608C14.8723 36.6186 14.9153 36.7765 15.0301 36.8912C15.1448 37.006 15.2738 37.0634 15.4316 37.0634C15.6037 37.0634 15.7901 36.9486 15.8618 36.8051C15.9191 36.9199 15.9765 37.0347 16.0339 37.1494C15.9908 37.2068 15.9191 37.2499 15.8331 37.2929C15.6754 37.379 15.5033 37.4077 15.3169 37.3933C15.1591 37.379 15.0014 37.3216 14.8723 37.2212C14.7433 37.1208 14.6429 36.9916 14.5855 36.8338C14.5425 36.7047 14.5138 36.5756 14.5281 36.4322C14.5568 36.2026 14.6572 36.0018 14.8293 35.8583C14.9297 35.7722 15.0301 35.7149 15.1591 35.6862C15.2738 35.6575 15.3886 35.6431 15.5033 35.6575C15.661 35.6718 15.8044 35.7292 15.9335 35.8296C16.0912 35.9444 16.1916 36.0879 16.249 36.26C16.2776 36.3317 16.2776 36.4035 16.292 36.4895C16.3063 36.6186 16.3207 36.7478 16.4067 36.8482C16.4927 36.9629 16.6075 37.0347 16.7509 37.049C16.9803 37.0777 17.1524 36.9916 17.2671 36.8051C17.3818 36.633 17.3818 36.4178 17.2528 36.2313C17.1811 36.1309 17.0807 36.0592 16.966 36.0161C16.7652 35.9587 16.6075 36.0161 16.4641 36.1452C16.4641 36.1883 16.4354 36.217 16.4067 36.26Z" fill="#ED1C24"/>
<path d="M20.1085 30.3237C20.1085 30.3237 12.7657 29.8754 11.8008 37.1346V52.8677" stroke="#1E363B" stroke-width="0.257143" stroke-miterlimit="10"/>
<path d="M15.4499 18.3016C15.4499 18.3016 13.9402 25.0982 19.517 27.964C19.517 27.964 22.5364 29.4673 25.6483 28.1362" stroke="#1E363B" stroke-width="0.3" stroke-miterlimit="10"/>
<path d="M29.4718 17.2639C29.4718 17.2639 30.1567 22.8238 28.418 24.3848" stroke="#1E363B" stroke-width="0.3" stroke-miterlimit="10"/>
<path d="M30.791 32.6926C30.791 32.6926 32.814 34.424 32.9893 36.658C33.1647 38.892 33.1646 51.6816 33.1646 51.6816" stroke="#1E363B" stroke-width="0.251383" stroke-miterlimit="10"/>
<path d="M25.4991 20.7104C25.8476 20.7104 26.1301 20.415 26.1301 20.0505C26.1301 19.6861 25.8476 19.3906 25.4991 19.3906C25.1506 19.3906 24.8682 19.6861 24.8682 20.0505C24.8682 20.415 25.1506 20.7104 25.4991 20.7104Z" fill="#061E23"/>
<path d="M24.2658 18.4143C24.2658 18.4143 24.2514 18.7729 24.5239 18.9738C24.7963 19.1746 25.9866 18.1847 26.8039 18.7155C26.8039 18.7155 27.3058 18.9451 26.4885 18.2852C25.6711 17.6253 24.2658 18.4143 24.2658 18.4143Z" fill="#061E23"/>
<path d="M19.4181 20.7104C19.7666 20.7104 20.049 20.415 20.049 20.0505C20.049 19.6861 19.7666 19.3906 19.4181 19.3906C19.0696 19.3906 18.7871 19.6861 18.7871 20.0505C18.7871 20.415 19.0696 20.7104 19.4181 20.7104Z" fill="#061E23"/>
<path d="M20.6516 18.4143C20.6516 18.4143 20.666 18.7729 20.3935 18.9738C20.121 19.1746 18.9308 18.1847 18.1134 18.7155C18.1134 18.7155 17.6115 18.9451 18.4289 18.2852C19.2463 17.6253 20.6516 18.4143 20.6516 18.4143Z" fill="#061E23"/>
<path d="M22.4383 19.637C22.4383 19.637 21.0392 23.083 21.339 23.1829C21.6388 23.2703 22.4837 22.9332 22.4837 22.9332" fill="#F9A76A"/>
<path d="M20.1104 24.644C20.1104 24.644 22.5629 26.8958 24.8576 24.3856" stroke="#061E23" stroke-width="0.3" stroke-miterlimit="10"/>
<path d="M22.9027 30.5504L20.1781 33.2761L20.1494 30.5648L22.9027 30.5504Z" fill="#8E191C"/>
<path d="M22.6592 30.5505L25.3838 33.2762L25.4268 30.5649L22.6592 30.5505Z" fill="#8E191C"/>
<path d="M22.4834 30.3182V59.9885" stroke="#8E191C" stroke-width="0.257143" stroke-miterlimit="10"/>
</g>
</svg>
